<svg width="28" height="28" viewBox="0 0 28 28" fill="none" xmlns="http://www.w3.org/2000/svg">
<path d="M14 0.666626C6.64802 0.666626 0.666687 6.64796 0.666687 14C0.666687 21.352 6.64802 27.3333 14 27.3333C21.352 27.3333 27.3334 21.352 27.3334 14C27.3334 6.64796 21.352 0.666626 14 0.666626ZM14 3.33329C19.8814 3.33329 24.6667 8.11863 24.6667 14C24.6667 19.8813 19.8814 24.6666 14 24.6666C8.11869 24.6666 3.33335 19.8813 3.33335 14C3.33335 8.11863 8.11869 3.33329 14 3.33329ZM14 4.66663C13.2928 4.66663 12.6145 4.94758 12.1144 5.44767C11.6143 5.94777 11.3334 6.62605 11.3334 7.33329C11.3334 8.04054 11.6143 8.71881 12.1144 9.21891C12.6145 9.71901 13.2928 9.99996 14 9.99996C14.7073 9.99996 15.3855 9.71901 15.8856 9.21891C16.3857 8.71881 16.6667 8.04054 16.6667 7.33329C16.6667 6.62605 16.3857 5.94777 15.8856 5.44767C15.3855 4.94758 14.7073 4.66663 14 4.66663ZM7.33335 11.3333V14H11.3334V15.0729L8.76044 21.5052L11.2396 22.4948L13.0365 18H14.9636L16.7604 22.4948L19.2396 21.5052L16.6667 15.0729V14H20.6667V11.3333H7.33335Z" fill="white"/>
</svg>
