<svg width="28" height="34" viewBox="0 0 28 34" fill="none" xmlns="http://www.w3.org/2000/svg">
<path d="M15.6667 12.0007H24.8333L15.6667 2.83398V12.0007ZM4 0.333984H17.3333L27.3333 10.334V30.334C27.3333 31.218 26.9821 32.0659 26.357 32.691C25.7319 33.3161 24.8841 33.6673 24 33.6673H4C2.15 33.6673 0.666664 32.1673 0.666664 30.334V3.66732C0.666664 1.81732 2.15 0.333984 4 0.333984ZM4 30.334H19H24V17.0007L17.3333 23.6673L14 20.334L4 30.334ZM7.33333 12.0007C6.44928 12.0007 5.60143 12.3518 4.97631 12.977C4.35119 13.6021 4 14.4499 4 15.334C4 16.218 4.35119 17.0659 4.97631 17.691C5.60143 18.3161 6.44928 18.6673 7.33333 18.6673C8.21739 18.6673 9.06523 18.3161 9.69035 17.691C10.3155 17.0659 10.6667 16.218 10.6667 15.334C10.6667 14.4499 10.3155 13.6021 9.69035 12.977C9.06523 12.3518 8.21739 12.0007 7.33333 12.0007Z" fill="#3A3A3A"/>
</svg>
