<svg width="28" height="28" viewBox="0 0 28 28" fill="none" xmlns="http://www.w3.org/2000/svg">
<path d="M12 0C9.07027 0 6.66667 2.40361 6.66667 5.33333C6.66667 8.26306 9.07027 10.6667 12 10.6667C14.9297 10.6667 17.3333 8.26306 17.3333 5.33333C17.3333 2.40361 14.9297 0 12 0ZM12 2.66667C13.4886 2.66667 14.6667 3.84478 14.6667 5.33333C14.6667 6.82189 13.4886 8 12 8C10.5114 8 9.33333 6.82189 9.33333 5.33333C9.33333 3.84478 10.5114 2.66667 12 2.66667ZM12 14.6667C7.812 14.6667 0 16.7267 0 20.6667V24H13.5625L16.2292 21.3333H2.66667V20.6667C2.66667 19.508 7.61067 17.3333 12 17.3333C14.4013 17.3333 16.9635 17.9856 18.7969 18.7656L20.7969 16.7656C18.1555 15.3816 14.4587 14.6667 12 14.6667ZM25.6094 16C25.4389 16 25.268 16.0653 25.138 16.1953L23.8047 17.5286L26.4714 20.1953L27.8047 18.862C28.0647 18.602 28.0647 18.1793 27.8047 17.9193L26.0807 16.1953C25.9501 16.0653 25.7799 16 25.6094 16ZM22.862 18.4714L16 25.3333V28H18.6667L25.5286 21.138L22.862 18.4714Z" fill="white"/>
</svg>
