<svg width="20" height="20" viewBox="0 0 20 20" fill="none" xmlns="http://www.w3.org/2000/svg">
<path d="M9 0.0507812C6.992 0.250781 5.15778 1.04872 3.67578 2.26172L5.10156 3.6875C6.20756 2.8275 7.542 2.25136 9 2.06836V0.0507812ZM11 0.0507812V2.07031C12.458 2.25331 13.7924 2.82945 14.8984 3.68945L16.3242 2.26172C14.8412 1.04772 13.008 0.250781 11 0.0507812ZM2.26172 3.67578C1.04772 5.15778 0.250781 6.992 0.0507812 9H2.06836C2.25136 7.542 2.8275 6.20756 3.6875 5.10156L2.26172 3.67578ZM17.7383 3.67578L16.3105 5.10352C17.1705 6.20952 17.7467 7.54395 17.9297 9.00195H19.9492C19.7492 6.99295 18.9523 5.15778 17.7383 3.67578ZM0.0507812 10.998C0.250781 13.007 1.04772 14.8422 2.26172 16.3242L3.68945 14.8965C2.82945 13.7905 2.25331 12.456 2.07031 10.998H0.0507812ZM17.9316 11.002C17.7484 12.4592 17.1721 13.7929 16.3125 14.8984L17.7383 16.3242C18.9513 14.8422 19.7492 13.01 19.9492 11.002H17.9316ZM5.10156 16.3125L3.67578 17.7383C5.15778 18.9513 6.99005 19.7492 8.99805 19.9492V17.9316C7.5408 17.7484 6.20708 17.1721 5.10156 16.3125ZM14.8984 16.3125C13.7924 17.1725 12.458 17.7486 11 17.9316V19.9492C13.008 19.7492 14.8422 18.9513 16.3242 17.7383L14.8984 16.3125Z" fill="#3A3A3A"/>
</svg>
