<svg width="22" height="16" viewBox="0 0 22 16" fill="none" xmlns="http://www.w3.org/2000/svg">
<path d="M11 0C3 0 0 8 0 8C0 8 3 16 11 16C19 16 22 8 22 8C22 8 19 0 11 0ZM11 3C13.761 3 16 5.239 16 8C16 10.761 13.761 13 11 13C8.239 13 6 10.761 6 8C6 5.239 8.239 3 11 3ZM11 5C10.2044 5 9.44129 5.31607 8.87868 5.87868C8.31607 6.44129 8 7.20435 8 8C8 8.79565 8.31607 9.55871 8.87868 10.1213C9.44129 10.6839 10.2044 11 11 11C11.7956 11 12.5587 10.6839 13.1213 10.1213C13.6839 9.55871 14 8.79565 14 8C14 7.20435 13.6839 6.44129 13.1213 5.87868C12.5587 5.31607 11.7956 5 11 5Z" fill="#BBB9C9"/>
</svg>
